<svg xmlns="http://www.w3.org/2000/svg" xmlns:xlink="http://www.w3.org/1999/xlink" width="500" zoomAndPan="magnify" viewBox="0 0 375 374.999991" height="500" preserveAspectRatio="xMidYMid meet" version="1.0"><defs><filter x="0%" y="0%" width="100%" height="100%" id="ec1597336a"><feColorMatrix values="0 0 0 0 1 0 0 0 0 1 0 0 0 0 1 0 0 0 1 0" color-interpolation-filters="sRGB"/></filter><g/><clipPath id="51ffb6bfda"><path d="M 12 11 L 333 11 L 333 294.558594 L 12 294.558594 Z M 12 11 " clip-rule="nonzero"/></clipPath><mask id="9be53945f8"><g filter="url(#ec1597336a)"><rect x="-103.5" width="540" fill="#000000" y="-122.499998" height="539.999987" fill-opacity="0.53"/></g></mask><clipPath id="4aad7159e3"><path d="M 0.894531 0.84375 L 321 0.84375 L 321 283.417969 L 0.894531 283.417969 Z M 0.894531 0.84375 " clip-rule="nonzero"/></clipPath><clipPath id="ef211d7d38"><path d="M 18.144531 0.84375 L 303.128906 0.84375 C 307.707031 0.84375 312.09375 2.660156 315.328125 5.894531 C 318.5625 9.128906 320.378906 13.519531 320.378906 18.09375 L 320.378906 266.167969 C 320.378906 270.742188 318.5625 275.128906 315.328125 278.363281 C 312.09375 281.597656 307.707031 283.417969 303.128906 283.417969 L 18.144531 283.417969 C 13.570312 283.417969 9.183594 281.597656 5.949219 278.363281 C 2.714844 275.128906 0.894531 270.742188 0.894531 266.167969 L 0.894531 18.09375 C 0.894531 13.519531 2.714844 9.128906 5.949219 5.894531 C 9.183594 2.660156 13.570312 0.84375 18.144531 0.84375 Z M 18.144531 0.84375 " clip-rule="nonzero"/></clipPath><clipPath id="2791aee1e2"><path d="M 0.894531 0.84375 L 320 0.84375 L 320 283.417969 L 0.894531 283.417969 Z M 0.894531 0.84375 " clip-rule="nonzero"/></clipPath><clipPath id="e26841edf8"><path d="M 18.144531 0.84375 L 303.128906 0.84375 C 307.707031 0.84375 312.09375 2.660156 315.328125 5.894531 C 318.5625 9.128906 320.378906 13.519531 320.378906 18.09375 L 320.378906 266.167969 C 320.378906 270.742188 318.5625 275.128906 315.328125 278.363281 C 312.09375 281.597656 307.707031 283.417969 303.128906 283.417969 L 18.144531 283.417969 C 13.570312 283.417969 9.183594 281.597656 5.949219 278.363281 C 2.714844 275.128906 0.894531 270.742188 0.894531 266.167969 L 0.894531 18.09375 C 0.894531 13.519531 2.714844 9.128906 5.949219 5.894531 C 9.183594 2.660156 13.570312 0.84375 18.144531 0.84375 Z M 18.144531 0.84375 " clip-rule="nonzero"/></clipPath><clipPath id="21cd6dac95"><rect x="0" width="321" y="0" height="284"/></clipPath><clipPath id="8bce10958f"><rect x="0" width="321" y="0" height="284"/></clipPath><clipPath id="dffe7db695"><path d="M 0.621094 0.582031 L 320.722656 0.582031 L 320.722656 283.15625 L 0.621094 283.15625 Z M 0.621094 0.582031 " clip-rule="nonzero"/></clipPath><clipPath id="88127318e9"><path d="M 17.871094 0.582031 L 302.855469 0.582031 C 307.429688 0.582031 311.816406 2.402344 315.050781 5.636719 C 318.285156 8.871094 320.105469 13.257812 320.105469 17.832031 L 320.105469 265.90625 C 320.105469 270.480469 318.285156 274.871094 315.050781 278.105469 C 311.816406 281.339844 307.429688 283.15625 302.855469 283.15625 L 17.871094 283.15625 C 13.292969 283.15625 8.90625 281.339844 5.671875 278.105469 C 2.4375 274.871094 0.621094 270.480469 0.621094 265.90625 L 0.621094 17.832031 C 0.621094 13.257812 2.4375 8.871094 5.671875 5.636719 C 8.90625 2.402344 13.292969 0.582031 17.871094 0.582031 Z M 17.871094 0.582031 " clip-rule="nonzero"/></clipPath><clipPath id="29942ce95c"><path d="M 0.621094 0.582031 L 320 0.582031 L 320 283.15625 L 0.621094 283.15625 Z M 0.621094 0.582031 " clip-rule="nonzero"/></clipPath><clipPath id="72fb745cf1"><path d="M 17.871094 0.582031 L 302.855469 0.582031 C 307.429688 0.582031 311.816406 2.402344 315.050781 5.636719 C 318.285156 8.871094 320.105469 13.257812 320.105469 17.832031 L 320.105469 265.90625 C 320.105469 270.480469 318.285156 274.871094 315.050781 278.105469 C 311.816406 281.339844 307.429688 283.15625 302.855469 283.15625 L 17.871094 283.15625 C 13.292969 283.15625 8.90625 281.339844 5.671875 278.105469 C 2.4375 274.871094 0.621094 270.480469 0.621094 265.90625 L 0.621094 17.832031 C 0.621094 13.257812 2.4375 8.871094 5.671875 5.636719 C 8.90625 2.402344 13.292969 0.582031 17.871094 0.582031 Z M 17.871094 0.582031 " clip-rule="nonzero"/></clipPath><clipPath id="71bfea25aa"><rect x="0" width="321" y="0" height="284"/></clipPath><clipPath id="468f077e4c"><path d="M 200 12 L 305.910156 12 L 305.910156 155.777344 L 200 155.777344 Z M 200 12 " clip-rule="nonzero"/></clipPath><clipPath id="290648c330"><rect x="0" width="254" y="0" height="131"/></clipPath><clipPath id="19f3a84e35"><path d="M 136.789062 171.269531 L 183.980469 171.269531 L 183.980469 196 L 136.789062 196 Z M 136.789062 171.269531 " clip-rule="nonzero"/></clipPath><clipPath id="ca98fab472"><path d="M 171 172 L 183.980469 172 L 183.980469 195 L 171 195 Z M 171 172 " clip-rule="nonzero"/></clipPath><clipPath id="626643aaa8"><rect x="0" width="168" y="0" height="101"/></clipPath><clipPath id="3fa75c3f67"><rect x="0" width="92" y="0" height="122"/></clipPath><clipPath id="b4cf604181"><rect x="0" width="333" y="0" height="295"/></clipPath></defs><g transform="matrix(1, 0, 0, 1, 21, 40)"><g clip-path="url(#b4cf604181)"><g clip-path="url(#51ffb6bfda)"><g mask="url(#9be53945f8)"><g transform="matrix(1, 0, 0, 1, 12, 11)"><g clip-path="url(#8bce10958f)"><g clip-path="url(#4aad7159e3)"><g clip-path="url(#ef211d7d38)"><g><g clip-path="url(#21cd6dac95)"><g clip-path="url(#2791aee1e2)"><g clip-path="url(#e26841edf8)"><path fill="#000000" d="M 0.894531 0.84375 L 319.894531 0.84375 L 319.894531 283.417969 L 0.894531 283.417969 Z M 0.894531 0.84375 " fill-opacity="1" fill-rule="nonzero"/></g></g></g></g></g></g></g></g></g></g><g clip-path="url(#dffe7db695)"><g clip-path="url(#88127318e9)"><g transform="matrix(1, 0, 0, 1, 0.000000000000003553, 0)"><g clip-path="url(#71bfea25aa)"><g clip-path="url(#29942ce95c)"><g clip-path="url(#72fb745cf1)"><path fill="#17bebb" d="M 0.621094 0.582031 L 319.617188 0.582031 L 319.617188 283.15625 L 0.621094 283.15625 Z M 0.621094 0.582031 " fill-opacity="1" fill-rule="nonzero"/></g></g></g></g></g></g><g clip-path="url(#468f077e4c)"><path fill="#000000" d="M 281.863281 112.257812 L 282.285156 113.332031 C 280.554688 113.984375 278.636719 114.558594 276.675781 114.980469 L 276.445312 113.867188 C 278.367188 113.445312 280.210938 112.910156 281.902344 112.257812 Z M 261.464844 115.210938 C 260.195312 115.210938 258.851562 115.210938 257.351562 115.132812 L 257.351562 116.285156 C 258.8125 116.324219 260.15625 116.359375 261.425781 116.359375 C 261.964844 116.359375 262.539062 116.359375 263.117188 116.359375 L 263.117188 115.210938 C 262.539062 115.210938 262 115.210938 261.464844 115.210938 Z M 287.855469 25.839844 C 286.203125 26.761719 284.476562 27.640625 282.746094 28.449219 L 283.246094 29.484375 C 285.011719 28.675781 286.742188 27.796875 288.433594 26.835938 Z M 279.25 29.941406 C 277.484375 30.632812 275.640625 31.285156 273.832031 31.820312 L 274.179688 32.933594 C 276.023438 32.398438 277.90625 31.746094 279.710938 31.054688 L 279.289062 29.980469 Z M 271.757812 74.683594 C 270.03125 74.570312 268.109375 74.457031 265.957031 74.417969 L 265.957031 75.566406 C 268.109375 75.605469 269.992188 75.683594 271.683594 75.835938 Z M 270.105469 32.816406 C 268.261719 33.238281 266.34375 33.625 264.460938 33.890625 L 264.613281 35.042969 C 266.535156 34.773438 268.457031 34.390625 270.335938 33.96875 L 270.070312 32.855469 Z M 266.917969 115.09375 L 266.996094 116.246094 C 269.070312 116.128906 270.992188 115.9375 272.796875 115.671875 L 272.644531 114.519531 C 270.835938 114.789062 268.992188 114.941406 266.917969 115.058594 Z M 281.363281 76.257812 C 279.558594 75.757812 277.675781 75.375 275.640625 75.105469 L 275.484375 76.257812 C 277.484375 76.527344 279.328125 76.910156 281.09375 77.367188 L 281.402344 76.257812 Z M 293.425781 82.660156 L 292.617188 83.503906 C 294.039062 84.882812 295.15625 86.339844 295.960938 87.949219 L 297 87.414062 C 296.152344 85.726562 294.925781 84.117188 293.425781 82.660156 Z M 297.191406 91.402344 C 297.34375 92.207031 297.421875 93.011719 297.421875 93.816406 C 297.421875 94.621094 297.304688 95.847656 297.074219 96.882812 L 298.1875 97.152344 C 298.417969 96.039062 298.574219 94.929688 298.574219 93.855469 C 298.574219 92.78125 298.496094 92.054688 298.304688 91.210938 L 297.191406 91.441406 Z M 290.351562 80.207031 C 288.929688 79.246094 287.355469 78.402344 285.703125 77.753906 C 285.511719 77.675781 285.320312 77.597656 285.128906 77.523438 L 284.707031 78.597656 C 284.898438 78.671875 285.089844 78.75 285.28125 78.824219 C 286.855469 79.476562 288.355469 80.28125 289.738281 81.203125 L 290.390625 80.246094 Z M 221.78125 56.972656 C 221.320312 55.402344 221.089844 53.828125 221.089844 52.332031 C 221.089844 50.839844 221.089844 51.757812 221.089844 51.488281 L 219.9375 51.414062 C 219.9375 51.71875 219.9375 52.027344 219.9375 52.332031 C 219.9375 53.980469 220.203125 55.628906 220.664062 57.316406 Z M 222.28125 46.660156 C 222.855469 45.394531 223.625 44.207031 224.585938 43.09375 L 223.699219 42.328125 C 222.664062 43.515625 221.820312 44.78125 221.203125 46.160156 C 221.011719 46.582031 220.820312 47.042969 220.664062 47.464844 L 221.742188 47.847656 C 221.894531 47.425781 222.050781 47.042969 222.203125 46.660156 Z M 289.046875 108.425781 C 287.894531 109.269531 286.625 110.074219 285.28125 110.726562 L 285.820312 111.761719 C 287.203125 111.03125 288.507812 110.226562 289.738281 109.34375 C 290.082031 109.074219 290.429688 108.808594 290.773438 108.539062 L 290.046875 107.65625 C 289.738281 107.925781 289.390625 108.195312 289.046875 108.425781 Z M 295.808594 20.585938 C 294.308594 21.738281 292.734375 22.851562 291.121094 23.886719 L 291.734375 24.84375 C 293.386719 23.808594 294.960938 22.65625 296.5 21.46875 L 295.808594 20.550781 Z M 292.734375 105.050781 L 293.617188 105.816406 C 294.960938 104.285156 296.078125 102.636719 296.882812 100.871094 L 295.847656 100.371094 C 295.078125 102.023438 294.039062 103.59375 292.734375 105.050781 Z M 250.976562 35.65625 L 251.089844 35.65625 C 251.089844 35.65625 251.089844 34.503906 251.089844 34.503906 L 250.976562 34.503906 C 249.9375 34.503906 248.902344 34.503906 247.863281 34.503906 C 246.828125 34.503906 246.058594 34.503906 245.289062 34.503906 L 245.289062 35.65625 C 246.097656 35.65625 246.902344 35.65625 247.863281 35.65625 C 248.824219 35.65625 249.9375 35.65625 250.976562 35.65625 Z M 231.84375 36.804688 C 229.925781 37.574219 228.15625 38.53125 226.660156 39.644531 L 227.351562 40.5625 C 228.808594 39.488281 230.460938 38.609375 232.265625 37.878906 Z M 228.347656 116.667969 L 228.65625 117.78125 C 230.386719 117.320312 232.265625 116.9375 234.265625 116.628906 L 234.113281 115.480469 C 232.074219 115.746094 230.15625 116.167969 228.386719 116.628906 Z M 221.28125 119.351562 C 220.628906 119.695312 219.972656 120.042969 219.320312 120.425781 L 219.9375 121.421875 C 220.550781 121.039062 221.164062 120.691406 221.820312 120.386719 C 222.855469 119.851562 223.929688 119.390625 225.046875 118.929688 L 224.621094 117.855469 C 223.46875 118.316406 222.355469 118.816406 221.28125 119.351562 Z M 229.078125 67.554688 L 228.347656 68.4375 C 229.15625 69.085938 230.039062 69.699219 230.921875 70.199219 C 231.691406 70.660156 232.535156 71.121094 233.382812 71.503906 L 233.882812 70.46875 C 233.074219 70.085938 232.265625 69.664062 231.5 69.203125 C 230.652344 68.703125 229.847656 68.128906 229.078125 67.515625 Z M 206.722656 135.070312 L 207.757812 135.53125 C 208.527344 133.804688 209.488281 132.15625 210.523438 130.585938 L 209.5625 129.933594 C 208.488281 131.542969 207.527344 133.269531 206.683594 135.070312 Z M 262.078125 75.527344 L 262.078125 74.378906 L 258.121094 74.378906 C 257.507812 74.378906 256.890625 74.378906 256.277344 74.378906 L 256.277344 75.527344 C 256.890625 75.527344 257.507812 75.527344 258.121094 75.527344 Z M 211.945312 126.828125 L 212.828125 127.59375 C 214.058594 126.136719 215.441406 124.832031 216.902344 123.644531 L 216.171875 122.761719 C 214.671875 123.992188 213.25 125.371094 211.945312 126.867188 Z M 222.164062 60.960938 C 223.046875 62.683594 224.199219 64.332031 225.542969 65.828125 L 226.390625 65.0625 C 225.121094 63.644531 224.046875 62.070312 223.203125 60.460938 L 222.164062 60.996094 Z M 247.671875 116.054688 C 249.632812 116.054688 251.589844 116.128906 253.433594 116.207031 L 253.433594 115.058594 C 251.628906 114.980469 249.632812 114.941406 247.671875 114.902344 Z M 252.4375 74.339844 C 250.324219 74.261719 248.480469 74.148438 246.710938 73.917969 L 246.597656 75.070312 C 248.363281 75.261719 250.285156 75.414062 252.398438 75.492188 L 252.398438 74.339844 Z M 260.8125 35.464844 L 260.695312 34.3125 C 259.8125 34.390625 258.929688 34.429688 258.082031 34.46875 C 257.121094 34.503906 256.125 34.542969 254.972656 34.542969 L 254.972656 35.695312 C 256.125 35.695312 257.160156 35.695312 258.121094 35.617188 C 259.003906 35.578125 259.886719 35.503906 260.773438 35.464844 Z M 205.144531 144.578125 C 205.414062 142.738281 205.835938 140.859375 206.414062 139.058594 L 205.300781 138.710938 C 204.683594 140.589844 204.261719 142.507812 203.992188 144.425781 Z M 242.945312 73.34375 C 240.988281 73 239.105469 72.5 237.414062 71.964844 L 237.070312 73.035156 C 238.835938 73.613281 240.71875 74.109375 242.753906 74.457031 L 242.945312 73.304688 Z M 241.527344 35.847656 L 241.410156 34.695312 C 240.144531 34.8125 238.992188 34.964844 237.835938 35.15625 C 237.109375 35.273438 236.339844 35.425781 235.609375 35.617188 L 235.878906 36.730469 C 236.570312 36.539062 237.300781 36.421875 238.03125 36.269531 C 239.144531 36.078125 240.257812 35.921875 241.488281 35.847656 Z M 237.992188 115.09375 L 238.070312 116.246094 C 239.835938 116.09375 241.71875 116.015625 243.792969 116.015625 L 243.792969 114.867188 C 241.679688 114.867188 239.757812 114.980469 237.953125 115.09375 Z M 203.761719 146.726562 C 201.382812 147.070312 199.730469 149.257812 200.074219 151.59375 C 200.421875 153.972656 202.609375 155.621094 204.953125 155.277344 C 207.335938 154.929688 208.988281 152.746094 208.640625 150.40625 C 208.296875 148.03125 206.105469 146.378906 203.761719 146.726562 Z M 298.074219 13.6875 C 296.382812 15.375 296.382812 18.132812 298.074219 19.820312 C 299.765625 21.507812 302.53125 21.507812 304.21875 19.820312 C 305.910156 18.132812 305.910156 15.375 304.21875 13.6875 C 302.53125 12 299.765625 12 298.074219 13.6875 Z M 298.074219 13.6875 " fill-opacity="1" fill-rule="nonzero"/></g><g transform="matrix(1, 0, 0, 1, 31, 39)"><g clip-path="url(#290648c330)"><g fill="#ffffff" fill-opacity="1"><g transform="translate(7.858122, 96.269884)"><g><path d="M 93.46875 3.65625 C 88.425781 3.65625 84.25 2.585938 80.9375 0.453125 C 77.632812 -1.671875 75.175781 -4.210938 73.5625 -7.171875 C 71.945312 -10.140625 71.140625 -12.753906 71.140625 -15.015625 C 71.140625 -18.578125 72.75 -21.6875 75.96875 -24.34375 C 79.195312 -27 84.289062 -29.238281 91.25 -31.0625 C 90.726562 -32.457031 90.117188 -33.828125 89.421875 -35.171875 C 88.722656 -36.523438 87.984375 -37.988281 87.203125 -39.5625 C 84.679688 -38.507812 82.023438 -37.703125 79.234375 -37.140625 C 76.453125 -36.578125 73.929688 -36.296875 71.671875 -36.296875 C 70.191406 -36.296875 68.554688 -36.359375 66.765625 -36.484375 C 64.984375 -36.617188 63.050781 -36.859375 60.96875 -37.203125 L 61.09375 1.3125 L 59.796875 1.3125 L 49.34375 -5.484375 L 49.484375 -31.71875 L 18.671875 -10.4375 L 10.96875 -18.015625 L 47.125 -41.515625 C 42.34375 -45.078125 38.625 -47.6875 35.96875 -49.34375 C 33.3125 -51 30.9375 -51.828125 28.84375 -51.828125 C 26.582031 -51.828125 23.863281 -51.019531 20.6875 -49.40625 C 17.507812 -47.800781 14.441406 -46.257812 11.484375 -44.78125 L 4.5625 -53.78125 L 4.5625 -54.4375 C 8.394531 -56.09375 12.050781 -57.660156 15.53125 -59.140625 C 19.007812 -60.617188 22.097656 -61.359375 24.796875 -61.359375 C 27.066406 -61.359375 29.179688 -60.898438 31.140625 -59.984375 C 33.097656 -59.066406 35.46875 -57.519531 38.25 -55.34375 C 41.03125 -53.175781 44.816406 -50.132812 49.609375 -46.21875 L 49.875 -71.140625 L 0.78125 -71.140625 L -3.65625 -79.640625 L -3.65625 -80.9375 L 110.3125 -80.9375 L 114.75 -72.453125 L 114.75 -71.140625 L 60.828125 -71.140625 L 60.96875 -43.21875 L 63.96875 -43.21875 C 68.0625 -43.21875 71.5625 -43.820312 74.46875 -45.03125 C 77.382812 -46.25 79.582031 -47.597656 81.0625 -49.078125 C 80.113281 -50.910156 79.375 -52.546875 78.84375 -53.984375 C 78.320312 -55.421875 78.0625 -56.789062 78.0625 -58.09375 C 78.0625 -59.65625 78.453125 -60.738281 79.234375 -61.34375 C 80.023438 -61.957031 81.113281 -62.265625 82.5 -62.265625 C 84.332031 -62.265625 86.441406 -61.71875 88.828125 -60.625 C 91.222656 -59.539062 93.289062 -58.109375 95.03125 -56.328125 C 96.78125 -54.546875 97.65625 -52.566406 97.65625 -50.390625 C 97.65625 -48.910156 97.238281 -47.539062 96.40625 -46.28125 C 95.582031 -45.019531 94.472656 -43.863281 93.078125 -42.8125 C 94.816406 -39.851562 96.40625 -36.914062 97.84375 -34 C 99.28125 -31.09375 100.738281 -27.765625 102.21875 -24.015625 L 101.953125 -23.375 C 95.429688 -22.0625 90.554688 -20.6875 87.328125 -19.25 C 84.109375 -17.820312 82 -16.410156 81 -15.015625 C 80 -13.617188 79.5 -12.269531 79.5 -10.96875 C 79.5 -9.75 80.085938 -8.484375 81.265625 -7.171875 C 82.441406 -5.867188 84.769531 -5.21875 88.25 -5.21875 C 90.425781 -5.21875 92.796875 -5.566406 95.359375 -6.265625 C 97.929688 -6.960938 100.828125 -8.222656 104.046875 -10.046875 L 110.578125 -1.703125 C 109.179688 -0.742188 107.003906 0.382812 104.046875 1.6875 C 101.085938 3 97.5625 3.65625 93.46875 3.65625 Z M 93.46875 3.65625 "/></g></g></g><g fill="#ffffff" fill-opacity="1"><g transform="translate(118.944314, 96.269884)"><g><path d="M 35.640625 -20.625 C 32.328125 -20.625 29.148438 -21.40625 26.109375 -22.96875 C 23.066406 -24.539062 20.328125 -26.546875 17.890625 -28.984375 C 15.453125 -31.421875 13.515625 -33.960938 12.078125 -36.609375 C 10.640625 -39.265625 9.832031 -41.726562 9.65625 -44 C 9.570312 -45.21875 9.53125 -46.347656 9.53125 -47.390625 C 9.53125 -48.429688 9.53125 -49.429688 9.53125 -50.390625 C 9.53125 -53.171875 9.550781 -56.429688 9.59375 -60.171875 C 9.632812 -63.921875 9.65625 -67.578125 9.65625 -71.140625 L 0.78125 -71.140625 L -3.65625 -79.640625 L -3.65625 -80.9375 L 92.296875 -80.9375 L 96.734375 -72.453125 L 96.734375 -71.140625 L 81.46875 -71.140625 L 81.71875 1.3125 L 80.421875 1.3125 L 69.96875 -5.484375 L 70.5 -71.140625 L 54.3125 -71.140625 L 54.3125 -40.203125 C 54.3125 -37.160156 53.632812 -34.113281 52.28125 -31.0625 C 50.9375 -28.019531 48.890625 -25.519531 46.140625 -23.5625 C 43.398438 -21.601562 39.898438 -20.625 35.640625 -20.625 Z M 20.75 -71.140625 L 21.015625 -41.125 C 21.015625 -36.945312 21.925781 -33.898438 23.75 -31.984375 C 25.582031 -30.066406 27.9375 -29.109375 30.8125 -29.109375 C 34.113281 -29.109375 37.023438 -30.21875 39.546875 -32.4375 C 42.078125 -34.65625 43.34375 -38.03125 43.34375 -42.5625 L 43.34375 -71.140625 Z M 20.75 -71.140625 "/></g></g></g><g fill="#ffffff" fill-opacity="1"><g transform="translate(212.01653, 96.269884)"><g><path d="M 9.796875 -8.09375 C 9.796875 -10.789062 10.707031 -13.070312 12.53125 -14.9375 C 14.363281 -16.8125 16.582031 -17.75 19.1875 -17.75 C 22.144531 -17.75 24.515625 -16.769531 26.296875 -14.8125 C 28.085938 -12.851562 28.984375 -10.613281 28.984375 -8.09375 C 28.984375 -5.476562 28.085938 -3.210938 26.296875 -1.296875 C 24.515625 0.609375 22.144531 1.5625 19.1875 1.5625 C 16.582031 1.5625 14.363281 0.628906 12.53125 -1.234375 C 10.707031 -3.109375 9.796875 -5.394531 9.796875 -8.09375 Z M 9.796875 -8.09375 "/></g></g></g></g></g><g clip-path="url(#19f3a84e35)"><path fill="#000000" d="M 177.089844 195.542969 C 173.320312 195.542969 170.257812 192.480469 170.257812 188.710938 C 170.257812 188.6875 170.273438 188.671875 170.296875 188.671875 C 170.316406 188.671875 170.335938 188.6875 170.335938 188.710938 C 170.335938 192.4375 173.363281 195.464844 177.089844 195.464844 C 180.8125 195.464844 183.84375 192.4375 183.84375 188.710938 L 183.84375 178.113281 C 183.84375 174.390625 180.8125 171.359375 177.089844 171.359375 C 173.363281 171.359375 170.335938 174.390625 170.335938 178.113281 L 170.335938 184.039062 C 170.335938 184.0625 170.316406 184.078125 170.296875 184.078125 C 170.273438 184.078125 170.257812 184.0625 170.257812 184.039062 L 170.257812 178.113281 C 170.257812 174.347656 173.320312 171.28125 177.089844 171.28125 C 180.859375 171.28125 183.921875 174.347656 183.921875 178.113281 L 183.921875 188.710938 C 183.921875 192.480469 180.859375 195.542969 177.089844 195.542969 Z M 153.675781 185.953125 L 152.761719 184.9375 C 152.746094 184.921875 152.722656 184.917969 152.707031 184.933594 C 152.691406 184.949219 152.6875 184.972656 152.703125 184.988281 L 153.566406 185.945312 L 151.585938 185.945312 C 150.917969 185.945312 150.375 186.488281 150.375 187.15625 L 150.375 188.710938 C 150.375 192.4375 147.34375 195.464844 143.621094 195.464844 C 139.894531 195.464844 136.863281 192.4375 136.863281 188.710938 L 136.863281 178.113281 C 136.863281 174.390625 139.894531 171.359375 143.621094 171.359375 C 147.34375 171.359375 150.375 174.390625 150.375 178.113281 L 150.375 183.910156 C 150.375 183.929688 150.390625 183.949219 150.414062 183.949219 C 150.433594 183.949219 150.453125 183.929688 150.453125 183.910156 L 150.453125 178.113281 C 150.453125 174.347656 147.386719 171.28125 143.621094 171.28125 C 139.851562 171.28125 136.785156 174.347656 136.785156 178.113281 L 136.785156 188.710938 C 136.785156 192.480469 139.851562 195.542969 143.621094 195.542969 C 147.386719 195.542969 150.453125 192.480469 150.453125 188.710938 L 150.453125 187.15625 C 150.453125 186.53125 150.960938 186.023438 151.585938 186.023438 L 153.550781 186.023438 L 152.703125 186.976562 C 152.6875 186.992188 152.691406 187.015625 152.707031 187.03125 C 152.714844 187.035156 152.722656 187.039062 152.734375 187.039062 C 152.742188 187.039062 152.753906 187.035156 152.761719 187.027344 L 153.675781 186.003906 C 153.6875 185.988281 153.6875 185.964844 153.675781 185.953125 Z M 170.464844 185.953125 L 169.558594 184.9375 C 169.546875 184.921875 169.519531 184.917969 169.503906 184.933594 C 169.488281 184.949219 169.488281 184.972656 169.5 184.988281 L 170.355469 185.945312 L 168.296875 185.945312 C 167.628906 185.945312 167.085938 186.488281 167.085938 187.15625 L 167.085938 188.710938 C 167.085938 192.4375 164.054688 195.464844 160.332031 195.464844 C 156.605469 195.464844 153.574219 192.4375 153.574219 188.710938 C 153.574219 188.6875 153.558594 188.671875 153.535156 188.671875 C 153.515625 188.671875 153.496094 188.6875 153.496094 188.710938 C 153.496094 192.480469 156.5625 195.542969 160.332031 195.542969 C 164.097656 195.542969 167.164062 192.480469 167.164062 188.710938 L 167.164062 187.15625 C 167.164062 186.53125 167.671875 186.023438 168.296875 186.023438 L 170.34375 186.023438 L 169.5 186.976562 C 169.488281 186.992188 169.488281 187.015625 169.503906 187.03125 C 169.511719 187.035156 169.519531 187.039062 169.53125 187.039062 C 169.542969 187.039062 169.550781 187.035156 169.558594 187.027344 L 170.464844 186.003906 C 170.476562 185.988281 170.476562 185.964844 170.464844 185.953125 Z M 153.535156 184.089844 C 153.558594 184.089844 153.574219 184.070312 153.574219 184.050781 L 153.574219 178.113281 C 153.574219 174.390625 156.605469 171.359375 160.332031 171.359375 C 164.054688 171.359375 167.085938 174.390625 167.085938 178.113281 L 167.085938 183.910156 C 167.085938 183.929688 167.105469 183.949219 167.125 183.949219 C 167.148438 183.949219 167.164062 183.929688 167.164062 183.910156 L 167.164062 178.113281 C 167.164062 174.347656 164.097656 171.28125 160.332031 171.28125 C 156.5625 171.28125 153.496094 174.347656 153.496094 178.113281 L 153.496094 184.050781 C 153.496094 184.070312 153.515625 184.089844 153.535156 184.089844 Z M 153.535156 184.089844 " fill-opacity="1" fill-rule="nonzero"/></g><g clip-path="url(#ca98fab472)"><path fill="#ffffff" d="M 177.089844 194.691406 C 173.746094 194.691406 171.03125 191.980469 171.03125 188.636719 L 171.03125 178.1875 C 171.03125 174.84375 173.746094 172.132812 177.089844 172.132812 C 180.433594 172.132812 183.148438 174.84375 183.148438 178.1875 L 183.148438 188.636719 C 183.148438 191.980469 180.433594 194.691406 177.089844 194.691406 Z M 177.089844 194.691406 " fill-opacity="1" fill-rule="nonzero"/></g><path fill="#efd6b1" d="M 160.363281 194.667969 C 157.015625 194.667969 154.304688 191.957031 154.304688 188.609375 L 154.304688 178.164062 C 154.304688 174.816406 157.015625 172.105469 160.363281 172.105469 C 163.707031 172.105469 166.417969 174.816406 166.417969 178.164062 L 166.417969 188.609375 C 166.417969 191.957031 163.707031 194.667969 160.363281 194.667969 Z M 160.363281 194.667969 " fill-opacity="1" fill-rule="nonzero"/><path fill="#5170ff" d="M 143.652344 194.667969 C 140.304688 194.667969 137.59375 191.957031 137.59375 188.609375 L 137.59375 178.164062 C 137.59375 174.816406 140.304688 172.105469 143.652344 172.105469 C 146.996094 172.105469 149.707031 174.816406 149.707031 178.164062 L 149.707031 188.609375 C 149.707031 191.957031 146.996094 194.667969 143.652344 194.667969 Z M 143.652344 194.667969 " fill-opacity="1" fill-rule="nonzero"/><g transform="matrix(1, 0, 0, 1, 27, 169)"><g clip-path="url(#626643aaa8)"><g fill="#ffde59" fill-opacity="1"><g transform="translate(0.565306, 72.063904)"><g><path d="M 63.859375 -36.609375 L 63.859375 -22.421875 C 62.171875 -14.660156 58.472656 -8.785156 52.765625 -4.796875 C 47.066406 -0.804688 40.703125 1.1875 33.671875 1.1875 C 24.847656 1.1875 17.332031 -2.113281 11.125 -8.71875 C 4.925781 -15.320312 1.828125 -23.296875 1.828125 -32.640625 C 1.828125 -42.148438 4.863281 -50.179688 10.9375 -56.734375 C 17.007812 -63.285156 24.585938 -66.5625 33.671875 -66.5625 C 44.285156 -66.5625 52.6875 -62.835938 58.875 -55.390625 L 49.125 -44.6875 C 45.632812 -50.289062 40.773438 -53.09375 34.546875 -53.09375 C 29.953125 -53.09375 26.03125 -51.097656 22.78125 -47.109375 C 19.53125 -43.117188 17.90625 -38.296875 17.90625 -32.640625 C 17.90625 -27.097656 19.53125 -22.359375 22.78125 -18.421875 C 26.03125 -14.484375 29.953125 -12.515625 34.546875 -12.515625 C 38.347656 -12.515625 41.660156 -13.660156 44.484375 -15.953125 C 47.316406 -18.253906 48.734375 -21.3125 48.734375 -25.125 L 33.671875 -25.125 L 33.671875 -36.609375 Z M 63.859375 -36.609375 "/></g></g></g><g fill="#ffde59" fill-opacity="1"><g transform="translate(66.253481, 72.063904)"><g><path d="M 45.875 -18.375 L 16.40625 -18.375 C 16.40625 -15.53125 17.328125 -13.421875 19.171875 -12.046875 C 21.023438 -10.671875 23.035156 -9.984375 25.203125 -9.984375 C 27.472656 -9.984375 29.265625 -10.285156 30.578125 -10.890625 C 31.898438 -11.503906 33.40625 -12.707031 35.09375 -14.5 L 45.25 -9.421875 C 41.019531 -2.347656 33.992188 1.1875 24.171875 1.1875 C 18.035156 1.1875 12.773438 -0.910156 8.390625 -5.109375 C 4.015625 -9.304688 1.828125 -14.363281 1.828125 -20.28125 C 1.828125 -26.195312 4.015625 -31.265625 8.390625 -35.484375 C 12.773438 -39.710938 18.035156 -41.828125 24.171875 -41.828125 C 30.609375 -41.828125 35.847656 -39.960938 39.890625 -36.234375 C 43.929688 -32.515625 45.953125 -27.195312 45.953125 -20.28125 C 45.953125 -19.332031 45.925781 -18.695312 45.875 -18.375 Z M 16.796875 -26.140625 L 32.25 -26.140625 C 31.925781 -28.253906 31.09375 -29.878906 29.75 -31.015625 C 28.40625 -32.148438 26.675781 -32.71875 24.5625 -32.71875 C 22.238281 -32.71875 20.390625 -32.109375 19.015625 -30.890625 C 17.640625 -29.679688 16.898438 -28.097656 16.796875 -26.140625 Z M 16.796875 -26.140625 "/></g></g></g><g fill="#ffde59" fill-opacity="1"><g transform="translate(113.875416, 72.063904)"><g><path d="M 4.75 0 L 4.75 -40.640625 L 18.78125 -40.640625 L 18.78125 -36.375 L 18.9375 -36.375 C 22.582031 -40.007812 26.460938 -41.828125 30.578125 -41.828125 C 32.585938 -41.828125 34.582031 -41.5625 36.5625 -41.03125 C 38.539062 -40.507812 40.441406 -39.691406 42.265625 -38.578125 C 44.085938 -37.472656 45.566406 -35.90625 46.703125 -33.875 C 47.835938 -31.84375 48.40625 -29.476562 48.40625 -26.78125 L 48.40625 0 L 34.390625 0 L 34.390625 -22.984375 C 34.390625 -25.085938 33.710938 -26.929688 32.359375 -28.515625 C 31.015625 -30.109375 29.257812 -30.90625 27.09375 -30.90625 C 24.976562 -30.90625 23.0625 -30.082031 21.34375 -28.4375 C 19.632812 -26.800781 18.78125 -24.984375 18.78125 -22.984375 L 18.78125 0 Z M 4.75 0 "/></g></g></g></g></g><g transform="matrix(1, 0, 0, 1, 193, 153)"><g clip-path="url(#3fa75c3f67)"><g fill="#ffffff" fill-opacity="1"><g transform="translate(0.261587, 94.952432)"><g><path d="M 60.625 0 L 47.484375 0 L 42.734375 -14.5625 L 18.53125 -14.5625 L 13.78125 0 L 0.953125 0 L 22.765625 -63.171875 L 38.8125 -63.171875 Z M 30.03125 -50 L 21.90625 -25.0625 L 39.28125 -25.0625 L 31.109375 -50 Z M 30.03125 -50 "/></g></g></g><g fill="#ffffff" fill-opacity="1"><g transform="translate(61.841056, 94.952432)"><g><path d="M 20.703125 0 L 8.203125 0 L 8.203125 -63.171875 L 20.703125 -63.171875 Z M 20.703125 0 "/></g></g></g></g></g></g></g></svg>